<svg width="195" height="96" viewBox="0 0 195 96" fill="none" xmlns="http://www.w3.org/2000/svg">
<mask id="path-1-inside-1_1_46646" fill="white">
<path fill-rule="evenodd" clip-rule="evenodd" d="M122.646 86.8433C115.648 91.378 107.37 94 98.5 94C89.0101 94 80.1988 90.999 72.907 85.8655C67.9255 90.9174 61.2879 94 54 94C48.3554 94 43.101 92.1508 38.7039 88.9697C34.6419 92.1228 29.5402 94 24 94C10.7452 94 0 83.2548 0 70C0 56.7452 10.7452 46 24 46C26.1182 46 28.1722 46.2744 30.1286 46.7896C35.0546 37.9168 43.9032 32 54 32C54.4542 32 54.9059 32.012 55.3548 32.0357C61.405 13.415 78.4359 0 98.5 0C118.551 0 135.573 13.3981 141.634 32.0003C152.765 32.0522 162.44 38.5823 167.421 48.1877C168.43 48.0638 169.457 48 170.5 48C184.031 48 195 58.7452 195 72C195 85.2548 184.031 96 170.5 96C164.614 96 159.212 93.9665 154.988 90.5775C150.945 92.765 146.36 94 141.5 94C134.33 94 127.758 91.3123 122.646 86.8433Z"/>
</mask>
<path fill-rule="evenodd" clip-rule="evenodd" d="M122.646 86.8433C115.648 91.378 107.37 94 98.5 94C89.0101 94 80.1988 90.999 72.907 85.8655C67.9255 90.9174 61.2879 94 54 94C48.3554 94 43.101 92.1508 38.7039 88.9697C34.6419 92.1228 29.5402 94 24 94C10.7452 94 0 83.2548 0 70C0 56.7452 10.7452 46 24 46C26.1182 46 28.1722 46.2744 30.1286 46.7896C35.0546 37.9168 43.9032 32 54 32C54.4542 32 54.9059 32.012 55.3548 32.0357C61.405 13.415 78.4359 0 98.5 0C118.551 0 135.573 13.3981 141.634 32.0003C152.765 32.0522 162.44 38.5823 167.421 48.1877C168.43 48.0638 169.457 48 170.5 48C184.031 48 195 58.7452 195 72C195 85.2548 184.031 96 170.5 96C164.614 96 159.212 93.9665 154.988 90.5775C150.945 92.765 146.36 94 141.5 94C134.33 94 127.758 91.3123 122.646 86.8433Z" fill="#F9FAFC"/>
<path d="M122.646 86.8433L122.975 86.4669L122.691 86.2184L122.374 86.4237L122.646 86.8433ZM72.907 85.8655L73.1948 85.4567L72.8484 85.2128L72.551 85.5145L72.907 85.8655ZM38.7039 88.9697L38.9969 88.5646L38.6933 88.345L38.3973 88.5748L38.7039 88.9697ZM30.1286 46.7896L30.0013 47.2731L30.3771 47.3721L30.5658 47.0323L30.1286 46.7896ZM55.3548 32.0357L55.3285 32.535L55.7117 32.5552L55.8303 32.1902L55.3548 32.0357ZM141.634 32.0003L141.158 32.1552L141.27 32.4986L141.631 32.5003L141.634 32.0003ZM167.421 48.1877L166.977 48.4179L167.137 48.7263L167.482 48.684L167.421 48.1877ZM154.988 90.5775L155.301 90.1875L155.042 89.9798L154.75 90.1377L154.988 90.5775ZM122.374 86.4237C115.454 90.908 107.27 93.5 98.5 93.5V94.5C107.471 94.5 115.842 91.848 122.918 87.2629L122.374 86.4237ZM98.5 93.5C89.1176 93.5 80.406 90.5334 73.1948 85.4567L72.6192 86.2744C79.9916 91.4646 88.9027 94.5 98.5 94.5V93.5ZM72.551 85.5145C67.6543 90.4802 61.1416 93.5 54 93.5V94.5C61.4341 94.5 68.1966 91.3545 73.263 86.2166L72.551 85.5145ZM54 93.5C48.4675 93.5 43.3145 91.6881 38.9969 88.5646L38.4108 89.3748C42.8875 92.6135 48.2434 94.5 54 94.5V93.5ZM38.3973 88.5748C34.4199 91.6621 29.4253 93.5 24 93.5V94.5C29.6551 94.5 34.8639 92.5834 39.0105 89.3647L38.3973 88.5748ZM24 93.5C11.0213 93.5 0.5 82.9787 0.5 70H-0.5C-0.5 83.531 10.469 94.5 24 94.5V93.5ZM0.5 70C0.5 57.0213 11.0213 46.5 24 46.5V45.5C10.469 45.5 -0.5 56.469 -0.5 70H0.5ZM24 46.5C26.0748 46.5 28.0861 46.7688 30.0013 47.2731L30.2559 46.3061C28.2584 45.78 26.1615 45.5 24 45.5V46.5ZM30.5658 47.0323C35.416 38.296 44.1091 32.5 54 32.5V31.5C43.6973 31.5 34.6932 37.5377 29.6915 46.5469L30.5658 47.0323ZM54 32.5C54.4454 32.5 54.8883 32.5117 55.3285 32.535L55.3811 31.5363C54.9235 31.5122 54.463 31.5 54 31.5V32.5ZM55.8303 32.1902C61.8184 13.7608 78.6676 0.5 98.5 0.5V-0.5C78.2041 -0.5 60.9916 13.0693 54.8793 31.8811L55.8303 32.1902ZM98.5 0.5C118.32 0.5 135.16 13.744 141.158 32.1552L142.109 31.8454C135.987 13.0521 118.783 -0.5 98.5 -0.5V0.5ZM167.865 47.9575C162.806 38.202 152.969 31.5532 141.636 31.5003L141.631 32.5003C152.56 32.5513 162.074 38.9626 166.977 48.4179L167.865 47.9575ZM170.5 47.5C169.437 47.5 168.389 47.5651 167.36 47.6914L167.482 48.684C168.47 48.5626 169.478 48.5 170.5 48.5V47.5ZM195.5 72C195.5 58.4594 184.297 47.5 170.5 47.5V48.5C183.765 48.5 194.5 59.031 194.5 72H195.5ZM170.5 96.5C184.297 96.5 195.5 85.5406 195.5 72H194.5C194.5 84.969 183.765 95.5 170.5 95.5V96.5ZM154.675 90.9675C158.986 94.4257 164.497 96.5 170.5 96.5V95.5C164.731 95.5 159.439 93.5073 155.301 90.1875L154.675 90.9675ZM141.5 94.5C146.446 94.5 151.113 93.243 155.226 91.0172L154.75 90.1377C150.778 92.2871 146.274 93.5 141.5 93.5V94.5ZM122.317 87.2197C127.515 91.7635 134.202 94.5 141.5 94.5V93.5C134.459 93.5 128.002 90.861 122.975 86.4669L122.317 87.2197Z" fill="#E6E7EB" mask="url(#path-1-inside-1_1_46646)"/>
</svg>
